HIERARCHY
ROOT mixamorig:Hips
{
	OFFSET -0.000008 104.274872 1.554316
	CHANNELS 6 Xposition Yposition Zposition Xrotation Yrotation Zrotation
	JOINT mixamorig:Spine
	{
		OFFSET -0.000005 10.181595 0.131519
		CHANNELS 6 Xposition Yposition Zposition Xrotation Yrotation Zrotation
		JOINT mixamorig:Spine1
		{
			OFFSET -0.000000 9.893959 -1.470707
			CHANNELS 6 Xposition Yposition Zposition Xrotation Yrotation Zrotation
			JOINT mixamorig:Spine2
			{
				OFFSET -0.000000 9.220757 -1.370641
				CHANNELS 6 Xposition Yposition Zposition Xrotation Yrotation Zrotation
				JOINT mixamorig:Neck
				{
					OFFSET 0.000001 16.740417 -2.049036
					CHANNELS 6 Xposition Yposition Zposition Xrotation Yrotation Zrotation
					JOINT mixamorig:Head
					{
						OFFSET 0.000000 9.617874 1.685006
						CHANNELS 6 Xposition Yposition Zposition Xrotation Yrotation Zrotation
						JOINT mixamorig:HeadTop_End
						{
							OFFSET 0.000002 22.037354 7.501101
							CHANNELS 6 Xposition Yposition Zposition Xrotation Yrotation Zrotation
							End Site
							{
								OFFSET 0.000168 2310.654297 -282.823242
							}
						}
					}
				}
				JOINT mixamorig:RightShoulder
				{
					OFFSET -4.569970 11.014908 -2.160885
					CHANNELS 6 Xposition Yposition Zposition Xrotation Yrotation Zrotation
					JOINT mixamorig:RightArm
					{
						OFFSET -10.592851 -0.524811 -2.232101
						CHANNELS 6 Xposition Yposition Zposition Xrotation Yrotation Zrotation
						JOINT mixamorig:RightForeArm
						{
							OFFSET -27.841511 0.000031 -0.000004
							CHANNELS 6 Xposition Yposition Zposition Xrotation Yrotation Zrotation
							JOINT mixamorig:RightHand
							{
								OFFSET -28.328831 -0.000015 0.000015
								CHANNELS 6 Xposition Yposition Zposition Xrotation Yrotation Zrotation
								JOINT mixamorig:RightHandThumb1
								{
									OFFSET -2.464806 -1.573990 2.681852
									CHANNELS 6 Xposition Yposition Zposition Xrotation Yrotation Zrotation
									JOINT mixamorig:RightHandThumb2
									{
										OFFSET -3.215179 -1.872803 1.924282
										CHANNELS 6 Xposition Yposition Zposition Xrotation Yrotation Zrotation
										JOINT mixamorig:RightHandThumb3
										{
											OFFSET -2.654831 -1.527969 1.512609
											CHANNELS 6 Xposition Yposition Zposition Xrotation Yrotation Zrotation
											JOINT mixamorig:RightHandThumb4
											{
												OFFSET -2.018814 -1.152008 1.108052
												CHANNELS 6 Xposition Yposition Zposition Xrotation Yrotation Zrotation
												End Site
												{
													OFFSET -188.809540 -114.533607 132.431396
												}
											}
										}
									}
								}
								JOINT mixamorig:RightHandIndex1
								{
									OFFSET -9.108284 -0.517868 2.259835
									CHANNELS 6 Xposition Yposition Zposition Xrotation Yrotation Zrotation
									JOINT mixamorig:RightHandIndex2
									{
										OFFSET -3.699989 0.000000 0.001215
										CHANNELS 6 Xposition Yposition Zposition Xrotation Yrotation Zrotation
										JOINT mixamorig:RightHandIndex3
										{
											OFFSET -2.850006 0.000031 -0.000522
											CHANNELS 6 Xposition Yposition Zposition Xrotation Yrotation Zrotation
											JOINT mixamorig:RightHandIndex4
											{
												OFFSET -2.772186 -0.000015 -0.000020
												CHANNELS 6 Xposition Yposition Zposition Xrotation Yrotation Zrotation
												End Site
												{
													OFFSET -277.218445 0.000000 -0.050231
												}
											}
										}
									}
								}
								JOINT mixamorig:RightHandMiddle1
								{
									OFFSET -9.532516 -0.000031 -0.000023
									CHANNELS 6 Xposition Yposition Zposition Xrotation Yrotation Zrotation
									JOINT mixamorig:RightHandMiddle2
									{
										OFFSET -3.700005 -0.000015 0.003713
										CHANNELS 6 Xposition Yposition Zposition Xrotation Yrotation Zrotation
										JOINT mixamorig:RightHandMiddle3
										{
											OFFSET -2.949974 0.000015 -0.002054
											CHANNELS 6 Xposition Yposition Zposition Xrotation Yrotation Zrotation
											JOINT mixamorig:RightHandMiddle4
											{
												OFFSET -2.946640 0.000000 -0.000156
												CHANNELS 6 Xposition Yposition Zposition Xrotation Yrotation Zrotation
												End Site
												{
													OFFSET -294.664337 0.000000 -0.113670
												}
											}
										}
									}
								}
								JOINT mixamorig:RightHandRing1
								{
									OFFSET -9.103600 -0.043076 -1.865134
									CHANNELS 6 Xposition Yposition Zposition Xrotation Yrotation Zrotation
									JOINT mixamorig:RightHandRing2
									{
										OFFSET -3.379288 0.000000 -0.001055
										CHANNELS 6 Xposition Yposition Zposition Xrotation Yrotation Zrotation
										JOINT mixamorig:RightHandRing3
										{
											OFFSET -2.889687 -0.000015 0.000379
											CHANNELS 6 Xposition Yposition Zposition Xrotation Yrotation Zrotation
											JOINT mixamorig:RightHandRing4
											{
												OFFSET -2.638809 -0.000015 0.000941
												CHANNELS 6 Xposition Yposition Zposition Xrotation Yrotation Zrotation
												End Site
												{
													OFFSET -263.880371 0.000000 0.516020
												}
											}
										}
									}
								}
								JOINT mixamorig:RightHandPinky1
								{
									OFFSET -8.076683 -0.486710 -3.806280
									CHANNELS 6 Xposition Yposition Zposition Xrotation Yrotation Zrotation
									JOINT mixamorig:RightHandPinky2
									{
										OFFSET -3.600014 -0.000015 -0.003747
										CHANNELS 6 Xposition Yposition Zposition Xrotation Yrotation Zrotation
										JOINT mixamorig:RightHandPinky3
										{
											OFFSET -2.099983 0.000000 -0.005739
											CHANNELS 6 Xposition Yposition Zposition Xrotation Yrotation Zrotation
											JOINT mixamorig:RightHandPinky4
											{
												OFFSET -2.115768 -0.000031 -0.003680
												CHANNELS 6 Xposition Yposition Zposition Xrotation Yrotation Zrotation
												End Site
												{
													OFFSET -211.577087 0.000000 -0.350686
												}
											}
										}
									}
								}
							}
						}
					}
				}
				JOINT mixamorig:LeftShoulder
				{
					OFFSET 4.570447 11.014725 -2.160855
					CHANNELS 6 Xposition Yposition Zposition Xrotation Yrotation Zrotation
					JOINT mixamorig:LeftArm
					{
						OFFSET 10.592371 -0.524597 -2.232119
						CHANNELS 6 Xposition Yposition Zposition Xrotation Yrotation Zrotation
						JOINT mixamorig:LeftForeArm
						{
							OFFSET 27.841532 -0.000031 0.000026
							CHANNELS 6 Xposition Yposition Zposition Xrotation Yrotation Zrotation
							JOINT mixamorig:LeftHand
							{
								OFFSET 28.328846 -0.000061 0.000022
								CHANNELS 6 Xposition Yposition Zposition Xrotation Yrotation Zrotation
								JOINT mixamorig:LeftHandThumb1
								{
									OFFSET 2.466141 -1.576172 2.681732
									CHANNELS 6 Xposition Yposition Zposition Xrotation Yrotation Zrotation
									JOINT mixamorig:LeftHandThumb2
									{
										OFFSET 3.217812 -1.872070 1.916482
										CHANNELS 6 Xposition Yposition Zposition Xrotation Yrotation Zrotation
										JOINT mixamorig:LeftHandThumb3
										{
											OFFSET 2.656029 -1.528778 1.514513
											CHANNELS 6 Xposition Yposition Zposition Xrotation Yrotation Zrotation
											JOINT mixamorig:LeftHandThumb4
											{
												OFFSET 2.020889 -1.154053 1.115139
												CHANNELS 6 Xposition Yposition Zposition Xrotation Yrotation Zrotation
												End Site
												{
													OFFSET 190.885437 -115.081749 130.048782
												}
											}
										}
									}
								}
								JOINT mixamorig:LeftHandIndex1
								{
									OFFSET 9.109314 -0.518021 2.259871
									CHANNELS 6 Xposition Yposition Zposition Xrotation Yrotation Zrotation
									JOINT mixamorig:LeftHandIndex2
									{
										OFFSET 3.699989 0.000000 -0.000322
										CHANNELS 6 Xposition Yposition Zposition Xrotation Yrotation Zrotation
										JOINT mixamorig:LeftHandIndex3
										{
											OFFSET 2.850006 0.000000 0.000352
											CHANNELS 6 Xposition Yposition Zposition Xrotation Yrotation Zrotation
											JOINT mixamorig:LeftHandIndex4
											{
												OFFSET 2.774864 -0.000031 -0.000027
												CHANNELS 6 Xposition Yposition Zposition Xrotation Yrotation Zrotation
												End Site
												{
													OFFSET 277.486267 0.000000 -0.009857
												}
											}
										}
									}
								}
								JOINT mixamorig:LeftHandMiddle1
								{
									OFFSET 9.533394 0.000061 0.000044
									CHANNELS 6 Xposition Yposition Zposition Xrotation Yrotation Zrotation
									JOINT mixamorig:LeftHandMiddle2
									{
										OFFSET 3.699989 -0.000015 -0.000231
										CHANNELS 6 Xposition Yposition Zposition Xrotation Yrotation Zrotation
										JOINT mixamorig:LeftHandMiddle3
										{
											OFFSET 2.949997 -0.000015 -0.000059
											CHANNELS 6 Xposition Yposition Zposition Xrotation Yrotation Zrotation
											JOINT mixamorig:LeftHandMiddle4
											{
												OFFSET 2.952896 0.000031 0.000063
												CHANNELS 6 Xposition Yposition Zposition Xrotation Yrotation Zrotation
												End Site
												{
													OFFSET 295.289337 0.000000 0.022810
												}
											}
										}
									}
								}
								JOINT mixamorig:LeftHandRing1
								{
									OFFSET 9.104523 -0.042999 -1.865074
									CHANNELS 6 Xposition Yposition Zposition Xrotation Yrotation Zrotation
									JOINT mixamorig:LeftHandRing2
									{
										OFFSET 3.150009 -0.000031 0.000043
										CHANNELS 6 Xposition Yposition Zposition Xrotation Yrotation Zrotation
										JOINT mixamorig:LeftHandRing3
										{
											OFFSET 2.949982 -0.000015 0.000040
											CHANNELS 6 Xposition Yposition Zposition Xrotation Yrotation Zrotation
											JOINT mixamorig:LeftHandRing4
											{
												OFFSET 2.644348 0.000000 0.000057
												CHANNELS 6 Xposition Yposition Zposition Xrotation Yrotation Zrotation
												End Site
												{
													OFFSET 264.434631 0.000000 0.012105
												}
											}
										}
									}
								}
								JOINT mixamorig:LeftHandPinky1
								{
									OFFSET 8.077789 -0.486847 -3.806259
									CHANNELS 6 Xposition Yposition Zposition Xrotation Yrotation Zrotation
									JOINT mixamorig:LeftHandPinky2
									{
										OFFSET 3.599953 0.000031 0.014727
										CHANNELS 6 Xposition Yposition Zposition Xrotation Yrotation Zrotation
										JOINT mixamorig:LeftHandPinky3
										{
											OFFSET 2.100021 0.000015 0.007705
											CHANNELS 6 Xposition Yposition Zposition Xrotation Yrotation Zrotation
											JOINT mixamorig:LeftHandPinky4
											{
												OFFSET 2.125504 0.000031 0.007517
												CHANNELS 6 Xposition Yposition Zposition Xrotation Yrotation Zrotation
												End Site
												{
													OFFSET 212.550781 0.000000 0.625752
												}
											}
										}
									}
								}
							}
						}
					}
				}
			}
		}
	}
	JOINT mixamorig:RightUpLeg
	{
		OFFSET -8.207787 -6.751648 -1.599560
		CHANNELS 6 Xposition Yposition Zposition Xrotation Yrotation Zrotation
		JOINT mixamorig:RightLeg
		{
			OFFSET -0.000002 -44.370117 0.345942
			CHANNELS 6 Xposition Yposition Zposition Xrotation Yrotation Zrotation
			JOINT mixamorig:RightFoot
			{
				OFFSET 0.000003 -44.423679 -3.043532
				CHANNELS 6 Xposition Yposition Zposition Xrotation Yrotation Zrotation
				JOINT mixamorig:RightToeBase
				{
					OFFSET -0.000002 -8.728671 10.710558
					CHANNELS 6 Xposition Yposition Zposition Xrotation Yrotation Zrotation
					JOINT mixamorig:RightToe_End
					{
						OFFSET -0.000001 -0.000679 9.278119
						CHANNELS 6 Xposition Yposition Zposition Xrotation Yrotation Zrotation
						End Site
						{
							OFFSET 0.000000 -0.067690 927.812134
						}
					}
				}
			}
		}
	}
	JOINT mixamorig:LeftUpLeg
	{
		OFFSET 8.207793 -6.751686 -1.599556
		CHANNELS 6 Xposition Yposition Zposition Xrotation Yrotation Zrotation
		JOINT mixamorig:LeftLeg
		{
			OFFSET -0.000004 -44.370014 0.346954
			CHANNELS 6 Xposition Yposition Zposition Xrotation Yrotation Zrotation
			JOINT mixamorig:LeftFoot
			{
				OFFSET -0.000001 -44.423672 -3.044401
				CHANNELS 6 Xposition Yposition Zposition Xrotation Yrotation Zrotation
				JOINT mixamorig:LeftToeBase
				{
					OFFSET -0.000002 -8.728669 10.710558
					CHANNELS 6 Xposition Yposition Zposition Xrotation Yrotation Zrotation
					JOINT mixamorig:LeftToe_End
					{
						OFFSET -0.000003 -0.000679 9.278133
						CHANNELS 6 Xposition Yposition Zposition Xrotation Yrotation Zrotation
						End Site
						{
							OFFSET 0.000000 -0.068021 927.813477
						}
					}
				}
			}
		}
	}
}
MOTION
Frames: 3
Frame Time: 0.033333
0.000006 104.270477 1.554256 0.000010 0.000003 -0.000113 -0.000005 10.181587 0.131522 0.000001 -0.000003 0.000084 -0.000000 9.893967 -1.470711 0.000001 0.000000 -0.000000 -0.000000 9.220802 -1.370642 0.000000 -0.000000 -0.000000 0.000001 16.740433 -2.049030 0.000000 -0.000000 -0.000000 0.000000 9.617859 1.685014 0.000000 0.000000 0.000000 0.000002 22.037384 7.501101 0.000000 -0.000000 0.000000 -4.569968 11.014880 -2.160881 0.000008 0.000001 -0.000038 -10.592874 -0.524688 -2.232007 72.845969 11.030493 -8.150684 -27.841528 0.000018 0.000533 -58.157490 110.045085 76.960120 -28.328838 0.000006 0.000028 -0.000319 -0.000046 0.000007 -2.464408 -1.573818 2.682365 -42.486041 -158.372320 2.366753 -3.215262 -1.872510 1.924635 151.274798 33.025201 17.071674 -2.654948 -1.527882 1.513063 146.711562 27.381701 -32.785642 -2.018835 -1.151994 1.108073 -0.000002 -0.000004 0.000005 -9.108369 -0.517529 2.260130 100.065447 15.069728 -17.991499 -3.700075 0.000327 0.001507 96.072478 12.107342 -13.426117 -2.850058 0.000358 -0.000268 93.969019 9.172255 -9.826626 -2.772143 -0.000017 -0.000017 -0.000001 -0.000001 0.000001 -9.532581 0.000286 0.000246 93.431435 14.266166 -15.285555 -3.700064 0.000332 0.003958 91.790584 10.650303 -10.890416 -2.950047 0.000330 -0.001828 93.359506 9.887736 -10.474573 -2.946613 0.000014 -0.000148 0.000000 -0.000001 0.000001 -9.103703 -0.042746 -1.864869 92.378192 15.718598 -16.330250 -3.379314 0.000337 -0.000818 91.682579 8.152803 -8.412475 -2.889746 0.000361 0.000634 98.083443 5.289004 -6.143108 -2.638801 -0.000000 0.000945 -0.000000 0.000001 -0.000000 -8.076740 -0.486371 -3.806022 86.094767 15.422454 -14.277773 -3.600020 0.000287 -0.003546 87.763676 5.717049 -5.169466 -2.100001 0.000325 -0.005493 92.004847 2.534835 -2.408306 -2.115778 -0.000042 -0.003676 0.000002 -0.000002 -0.000002 4.570446 11.014691 -2.160851 -0.000018 0.000010 -0.000021 10.592508 -0.524544 -2.232395 60.572153 -62.806827 39.246404 27.841759 -0.000073 -0.000122 232.171162 -76.605066 243.586566 28.328840 -0.000028 0.000027 0.000021 -0.000087 -0.000001 2.466090 -1.576203 2.681871 90.082784 110.859626 -133.343461 3.217667 -1.872067 1.916534 -16.440655 122.930359 -29.314653 2.655784 -1.528818 1.514637 146.977666 38.495127 -188.926680 2.020883 -1.154072 1.115149 0.000001 0.000005 0.000006 9.109468 -0.517834 2.259889 161.944099 -11.735955 65.720606 3.700136 0.000157 -0.000346 331.632786 -161.595405 245.386130 2.850142 0.000193 0.000340 150.986946 -17.178527 420.545129 2.774876 -0.000047 -0.000023 0.000005 0.000001 -0.000002 9.533108 0.000205 0.000136 184.168784 -7.793228 -123.804337 3.699678 0.000138 -0.000137 185.172535 -10.298016 -126.764035 2.949719 0.000194 0.000043 188.170072 -9.993499 -101.509500 2.952870 -0.000014 0.000066 0.000005 0.000000 0.000001 9.104319 -0.042711 -1.864960 192.887452 -8.515424 -66.787557 3.149649 0.000353 0.000171 191.716539 -10.940628 -86.052126 2.949718 0.000417 0.000194 196.642362 -10.492018 -64.240108 2.644315 0.000013 0.000061 0.000003 -0.000001 0.000001 8.077559 -0.486564 -3.806124 195.484508 -10.408239 -68.357851 3.599718 0.000393 0.014837 190.752758 -6.546160 -63.780873 2.099733 0.000391 0.007812 189.567420 -5.879964 -64.345880 2.125517 -0.000014 0.007515 -0.000003 0.000001 -0.000003 -8.207786 -6.751667 -1.599560 -0.077001 -0.000003 0.000080 -0.000002 -44.370110 0.345938 0.153719 -0.000000 -0.000000 0.000000 -44.423679 -3.043532 -0.076700 0.000000 -0.000002 -0.000006 -8.728667 10.710559 -0.000009 -0.000000 -0.000000 -0.000001 -0.000679 9.278123 0.000000 -0.000000 -0.000000 8.207792 -6.751710 -1.599556 -0.074518 -0.000003 0.000081 -0.000002 -44.370014 0.346960 0.148822 0.000002 0.000000 -0.000001 -44.423664 -3.044403 -0.074314 0.000000 -0.000002 -0.000004 -8.728671 10.710558 0.000007 -0.000000 -0.000000 0.000000 -0.000680 9.278137 -0.000000 0.000000 -0.000001 
0.000006 104.270477 1.554256 0.000010 0.000003 -0.000113 -0.000005 10.181587 0.131522 0.000001 -0.000003 0.000084 -0.000000 9.893967 -1.470711 0.000001 0.000000 -0.000000 -0.000000 9.220802 -1.370642 0.000000 -0.000000 -0.000000 0.000001 16.740433 -2.049030 0.000000 -0.000000 -0.000000 0.000000 9.617859 1.685014 0.000000 0.000000 0.000000 0.000002 22.037384 7.501101 0.000000 -0.000000 0.000000 -4.569968 11.014880 -2.160881 0.000008 0.000001 -0.000038 -10.592871 -0.524682 -2.232011 72.916661 8.437703 -6.239213 -27.841522 0.000009 0.000547 -58.321196 111.338490 78.499248 -28.328821 0.000021 0.000022 -0.000323 -0.000044 0.000007 -2.464398 -1.573810 2.682347 -43.441694 -159.856862 0.516269 -3.215270 -1.872527 1.924635 151.426059 33.062282 17.089224 -2.654950 -1.527870 1.513062 147.298890 27.307603 -32.560973 -2.018820 -1.152000 1.108062 0.000002 -0.000002 0.000005 -9.108372 -0.517560 2.260123 100.255675 14.931673 -17.887169 -3.700073 0.000333 0.001509 96.106014 12.048829 -13.369043 -2.850089 0.000380 -0.000276 93.986620 9.172437 -9.829826 -2.772143 -0.000001 -0.000022 -0.000002 -0.000000 0.000001 -9.532568 0.000278 0.000240 92.996017 14.117598 -15.014491 -3.700041 0.000325 0.003960 91.266593 10.525301 -10.664225 -2.950064 0.000346 -0.001834 92.728595 9.791010 -10.258981 -2.946620 0.000001 -0.000162 0.000005 0.000001 0.000001 -9.103693 -0.042743 -1.864874 92.012525 15.425934 -15.925080 -3.379317 0.000326 -0.000815 91.451807 7.843438 -8.061467 -2.889740 0.000358 0.000647 97.588848 5.110044 -5.885519 -2.638793 0.000001 0.000947 -0.000003 -0.000000 -0.000001 -8.076735 -0.486370 -3.806045 86.008884 15.175232 -14.025794 -3.600007 0.000296 -0.003525 88.164724 5.512593 -5.008707 -2.099991 0.000341 -0.005489 92.207062 2.479856 -2.359869 -2.115767 -0.000030 -0.003677 0.000000 -0.000002 -0.000004 4.570446 11.014691 -2.160851 -0.000018 0.000010 -0.000021 10.592508 -0.524537 -2.232396 61.160355 -62.750970 39.634293 27.841770 -0.000057 -0.000111 233.397154 -76.656613 244.925557 28.328825 -0.000013 0.000025 0.000019 -0.000090 -0.000000 2.466101 -1.576194 2.681880 103.860191 118.538111 -146.511342 3.217684 -1.872074 1.916527 5.214571 119.665119 -54.666799 2.655800 -1.528818 1.514620 147.570485 36.732095 -190.499604 2.020898 -1.154062 1.115144 0.000001 0.000000 0.000003 9.109462 -0.517837 2.259890 160.349537 -13.699600 69.426011 3.700110 0.000149 -0.000365 310.960618 -154.353765 233.077583 2.850123 0.000208 0.000310 128.442267 -25.234733 409.730836 2.774881 -0.000016 -0.000027 -0.000000 0.000002 -0.000001 9.533202 0.000390 0.000162 191.119157 -5.991769 -56.505035 3.699733 0.000299 -0.000113 192.818057 -10.004435 -75.850548 2.949791 0.000301 0.000072 197.254484 -11.551116 -67.382227 2.952877 -0.000015 0.000062 -0.000002 0.000001 0.000001 9.104383 -0.042679 -1.864930 200.751431 -7.725010 -40.487155 3.149737 0.000398 0.000199 199.517940 -13.175861 -67.763420 2.949765 0.000405 0.000226 205.614198 -13.663594 -55.582775 2.644319 0.000046 0.000064 0.000004 -0.000000 -0.000000 8.077595 -0.486522 -3.806109 198.137859 -9.617646 -56.600395 3.599732 0.000423 0.014856 194.261249 -7.216964 -54.769450 2.099761 0.000397 0.007828 191.922346 -7.205707 -63.237873 2.125524 -0.000026 0.007521 0.000001 0.000001 0.000001 -8.207786 -6.751667 -1.599560 -0.077001 -0.000003 0.000080 -0.000002 -44.370110 0.345938 0.153719 -0.000000 -0.000000 0.000000 -44.423679 -3.043532 -0.076700 0.000000 -0.000002 -0.000006 -8.728667 10.710559 -0.000009 -0.000000 -0.000000 -0.000001 -0.000679 9.278123 0.000000 -0.000000 -0.000000 8.207792 -6.751710 -1.599556 -0.074518 -0.000003 0.000081 -0.000002 -44.370014 0.346960 0.148822 0.000002 0.000000 -0.000001 -44.423664 -3.044403 -0.074314 0.000000 -0.000002 -0.000004 -8.728671 10.710558 0.000007 -0.000000 -0.000000 0.000000 -0.000680 9.278137 -0.000000 0.000000 -0.000001 
0.000006 104.270477 1.554256 0.000010 0.000003 -0.000113 -0.000005 10.181587 0.131522 0.000001 -0.000003 0.000084 -0.000000 9.893967 -1.470711 0.000001 0.000000 -0.000000 -0.000000 9.220802 -1.370642 0.000000 -0.000000 -0.000000 0.000001 16.740433 -2.049030 0.000000 -0.000000 -0.000000 0.000000 9.617859 1.685014 0.000000 0.000000 0.000000 0.000002 22.037384 7.501101 0.000000 -0.000000 0.000000 -4.569968 11.014880 -2.160881 0.000008 0.000001 -0.000038 -10.592867 -0.524673 -2.232028 72.908369 7.281588 -5.382390 -27.841530 0.000011 0.000519 -58.312501 111.179531 78.322148 -28.328829 0.000007 0.000023 -0.000323 -0.000044 0.000007 -2.464419 -1.573823 2.682342 -43.389316 -159.296336 0.498758 -3.215273 -1.872517 1.924620 150.216501 33.167740 19.943136 -2.654971 -1.527871 1.513076 146.856526 27.497385 -31.276717 -2.018837 -1.152001 1.108047 -0.000002 -0.000000 0.000000 -9.108377 -0.517569 2.260121 100.072482 14.740351 -17.603286 -3.700075 0.000329 0.001512 96.141934 12.059537 -13.389280 -2.850063 0.000381 -0.000256 94.518302 9.349306 -10.112445 -2.772163 -0.000017 -0.000016 0.000001 -0.000002 -0.000000 -9.532576 0.000256 0.000236 93.140052 13.770044 -14.684859 -3.700074 0.000330 0.003962 91.487324 10.490715 -10.669730 -2.950050 0.000336 -0.001827 93.491664 9.857834 -10.466934 -2.946624 0.000001 -0.000156 0.000003 -0.000000 -0.000000 -9.103685 -0.042758 -1.864875 92.495706 15.387426 -16.018151 -3.379308 0.000310 -0.000831 91.428298 7.969242 -8.187153 -2.889749 0.000360 0.000643 97.990559 5.213846 -6.046629 -2.638799 -0.000017 0.000951 -0.000002 0.000001 -0.000001 -8.076744 -0.486386 -3.806023 86.195348 15.231728 -14.124066 -3.600029 0.000291 -0.003527 87.305329 5.625771 -5.041598 -2.099982 0.000328 -0.005501 91.813588 2.588013 -2.454983 -2.115781 -0.000026 -0.003680 0.000001 0.000001 -0.000004 4.570446 11.014691 -2.160851 -0.000018 0.000010 -0.000021 10.592513 -0.524541 -2.232396 61.647225 -62.858504 40.067088 27.841761 -0.000088 -0.000110 234.011734 -76.359247 245.897028 28.328840 -0.000013 0.000033 0.000018 -0.000086 -0.000000 2.466100 -1.576190 2.681849 101.461921 115.993073 -144.070246 3.217692 -1.872066 1.916529 7.165078 119.348977 -56.752517 2.655789 -1.528813 1.514617 146.626184 34.841341 -189.372131 2.020895 -1.154080 1.115143 0.000002 0.000000 0.000001 9.109462 -0.517900 2.259905 163.265618 -15.217820 84.423221 3.700112 0.000140 -0.000352 312.054377 -152.769571 237.193209 2.850122 0.000210 0.000297 127.633409 -23.029933 405.008334 2.774878 -0.000029 -0.000027 -0.000001 -0.000000 0.000004 9.533235 0.000392 0.000146 192.373221 -6.049469 -51.948588 3.699724 0.000320 -0.000119 192.074550 -9.755451 -77.797794 2.949777 0.000296 0.000072 194.975181 -10.775122 -71.325753 2.952873 -0.000016 0.000070 -0.000000 0.000002 0.000000 9.104397 -0.042662 -1.864937 200.718687 -7.471316 -39.315921 3.149726 0.000401 0.000190 197.602932 -11.688937 -66.939310 2.949753 0.000411 0.000205 202.147153 -11.489926 -54.413235 2.644330 0.000015 0.000072 0.000002 0.000001 0.000001 8.077617 -0.486517 -3.806121 199.445034 -8.371434 -47.514484 3.599785 0.000437 0.014850 193.809049 -4.720249 -39.565336 2.099790 0.000433 0.007817 190.194923 -4.501036 -49.565184 2.125515 -0.000010 0.007522 -0.000001 0.000002 0.000004 -8.207786 -6.751667 -1.599560 -0.077001 -0.000003 0.000080 -0.000002 -44.370110 0.345938 0.153719 -0.000000 -0.000000 0.000000 -44.423679 -3.043532 -0.076700 0.000000 -0.000002 -0.000006 -8.728667 10.710559 -0.000009 -0.000000 -0.000000 -0.000001 -0.000679 9.278123 0.000000 -0.000000 -0.000000 8.207792 -6.751710 -1.599556 -0.074518 -0.000003 0.000081 -0.000002 -44.370014 0.346960 0.148822 0.000002 0.000000 -0.000001 -44.423664 -3.044403 -0.074314 0.000000 -0.000002 -0.000004 -8.728671 10.710558 0.000007 -0.000000 -0.000000 0.000000 -0.000680 9.278137 -0.000000 0.000000 -0.000001 
